<svg width="210" height="40" viewBox="0 0 210 40" fill="none" xmlns="http://www.w3.org/2000/svg">
<g clip-path="url(#clip0_7468_1181)">
<path fill-rule="evenodd" clip-rule="evenodd" d="M1.70967 23.6491C3.82501 25.7869 7.25482 25.7869 9.37016 23.6491C11.485 21.5113 11.485 18.0438 9.37016 15.9061C7.25482 13.7683 3.82501 13.7683 1.70967 15.9061C-0.405175 18.0438 -0.405175 21.5113 1.70967 23.6491ZM23.5194 30.2091C21.4045 28.0713 17.9741 28.0713 15.8593 30.2091C13.745 32.3469 13.745 35.8142 15.8593 37.952C17.9746 40.0898 21.4045 40.0898 23.5198 37.952C25.6347 35.8138 25.6347 32.3469 23.5194 30.2091ZM30.0089 15.9061C27.894 18.0438 27.894 21.5113 30.0089 23.6491C32.1242 25.7869 35.5542 25.7869 37.6688 23.6491C39.7844 21.5113 39.7844 18.0438 37.6688 15.9061C35.5546 13.7683 32.1242 13.7683 30.0089 15.9061ZM15.8593 1.60314C13.745 3.74089 13.745 7.20787 15.8593 9.34611C17.9746 11.4839 21.4045 11.4839 23.5198 9.34611C25.6287 7.21338 25.6347 3.75791 23.5356 1.61916C23.5301 1.61366 23.5253 1.60814 23.5194 1.60263C21.4045 -0.534623 17.9741 -0.534619 15.8593 1.60314ZM9.37016 1.60314C8.68766 0.913749 7.86945 0.446156 7.00173 0.20184C6.98936 0.198336 6.97597 0.194818 6.96311 0.191313C6.51784 0.0701578 6.0498 0.00457339 5.5674 0.00357117H5.55502C2.57244 0.00357117 0.1535 2.44873 0.146567 5.46662C0.146567 5.47062 0.146567 5.47462 0.146567 5.47913C0.146567 7.99738 1.82656 10.1191 4.11375 10.7574C4.57239 10.8856 5.05578 10.9542 5.55502 10.9542C6.53219 10.9542 7.42867 11.0403 8.24389 11.2115C11.4162 11.8779 13.3552 13.8359 14.0179 17.043C14.1674 17.767 14.2516 18.5545 14.2709 19.4046C14.263 19.5232 14.2596 19.6434 14.2596 19.764C14.2596 20.7613 14.1729 21.6755 14.001 22.5062C13.3378 25.7042 11.4033 27.6598 8.23993 28.3302C7.41827 28.5044 6.51388 28.5915 5.52679 28.5915C4.12119 28.5915 2.83445 29.1418 1.86865 30.0398C1.81764 30.0969 1.76415 30.1535 1.70967 30.2084C-0.314539 32.2546 -0.401214 35.5189 1.44965 37.6695C1.53285 37.7662 1.61953 37.8604 1.70967 37.9515C2.59324 38.8386 3.77746 39.42 5.0944 39.5251L5.7452 39.5371C8.63468 39.4213 10.9437 37.0158 10.9437 34.0664C10.9437 33.9589 10.9446 33.8513 10.9466 33.7451C10.963 32.8784 11.0477 32.0773 11.1987 31.3415C11.8594 28.1273 13.8009 26.1653 16.9806 25.4969C17.6953 25.3466 18.4734 25.2622 19.3134 25.2435C19.2965 25.2422 19.2792 25.2411 19.2619 25.2391L19.3411 25.2406L19.3639 25.2426L19.3916 25.2422C19.4813 25.2406 19.5714 25.2395 19.6626 25.2395L19.3946 25.2422L19.6883 25.2475H19.6903L20.0395 25.2411L20.1153 25.2395C20.0479 25.2451 19.98 25.2491 19.9127 25.2515L19.8359 25.2502C19.7903 25.2515 19.7448 25.2522 19.6997 25.2526C20.6794 25.2526 21.5778 25.3386 22.3944 25.5115C25.5652 26.1793 27.5022 28.1389 28.1635 31.3475C28.3343 32.1755 28.4201 33.0866 28.4201 34.08C28.4201 35.5473 28.9901 36.8802 29.9187 37.8629C29.9495 37.892 29.9796 37.9215 30.0095 37.9515C31.0089 38.9613 32.3016 39.4944 33.6105 39.5506C33.6121 39.55 33.6141 39.5506 33.6156 39.5506L34.2604 39.5386C35.5748 39.4329 36.7576 38.8518 37.6392 37.9651C38.659 36.9326 39.237 35.5429 39.237 34.08C39.237 31.1091 36.8607 28.6664 33.939 28.606C33.9018 28.6049 33.8651 28.6049 33.828 28.6049C32.8488 28.6049 31.951 28.5189 31.1347 28.3466C27.9635 27.6786 26.0264 25.7186 25.3647 22.5102C25.2022 21.7221 25.1172 20.859 25.109 19.9213C25.1101 19.8747 25.1106 19.8281 25.1106 19.7811C25.1106 18.7863 25.1963 17.8736 25.3687 17.045C26.0308 13.8419 27.9674 11.8839 31.1362 11.214C31.9569 11.0408 32.8593 10.9537 33.8434 10.9537C35.2772 10.9537 36.5808 10.3905 37.5497 9.47078C37.5888 9.42873 37.6284 9.38718 37.6688 9.34611C39.7844 7.20787 39.7844 3.7404 37.6688 1.60314C37.6649 1.59863 37.6605 1.59463 37.657 1.59062C37.6466 1.57961 37.6363 1.5686 37.6249 1.55858C36.6488 0.596345 35.3143 0.00357117 33.8434 0.00357117H33.8311C30.8454 0.0105801 28.4271 2.45973 28.4271 5.47862C28.4271 5.5402 28.4265 5.60229 28.426 5.66338C28.4161 6.58456 28.331 7.43367 28.171 8.20967C27.5093 11.4183 25.5698 13.3783 22.3955 14.0472C21.6784 14.1979 20.8983 14.283 20.0553 14.302C19.9969 14.3035 19.9384 14.3045 19.88 14.305C19.8755 14.305 19.8716 14.305 19.8671 14.3045C19.8156 14.3035 19.7641 14.302 19.7121 14.302C19.7081 14.302 19.7042 14.302 19.6997 14.302C19.6645 14.302 19.6289 14.3025 19.5937 14.3035C19.568 14.304 19.5412 14.3045 19.515 14.3055C19.514 14.3055 19.513 14.3055 19.512 14.3055C19.4422 14.305 19.3728 14.3035 19.3035 14.302C18.4689 14.2825 17.6953 14.1969 16.9841 14.0467C13.8148 13.3768 11.8792 11.4163 11.219 8.20616C11.0492 7.37909 10.9635 6.46991 10.9635 5.47862C10.9635 4.01273 10.3949 2.68153 9.46722 1.69876C9.43455 1.66772 9.40234 1.63568 9.37016 1.60314Z" fill="#384BFF"/>
<text x="50" y="28" font-family="Arial, sans-serif" font-size="24" font-weight="700" fill="white" letter-spacing="0.5">DEVTECH</text>
</g>
<defs>
<clipPath id="clip0_7468_1181">
<rect width="210" height="40" fill="white" transform="translate(0.00439453)"/>
</clipPath>
</defs>
</svg>
