<svg width="180" height="34" viewBox="0 0 180 34" fill="none" xmlns="http://www.w3.org/2000/svg">
<g clip-path="url(#clip0_7471_142)">
<path fill-rule="evenodd" clip-rule="evenodd" d="M1.4427 20.1019C3.23261 21.919 6.13475 21.919 7.92465 20.1019C9.71413 18.2848 9.71413 15.3375 7.92465 13.5204C6.13475 11.7033 3.23261 11.7033 1.4427 13.5204C-0.346784 15.3375 -0.346784 18.2848 1.4427 20.1019ZM19.897 25.6779C18.1075 23.8608 15.2049 23.8608 13.4155 25.6779C11.6264 27.495 11.6264 30.4423 13.4155 32.2594C15.2054 34.0765 18.1075 34.0765 19.8974 32.2594C21.6869 30.4419 21.6869 27.495 19.897 25.6779ZM25.3882 13.5204C23.5987 15.3375 23.5987 18.2848 25.3882 20.1019C27.1781 21.919 30.0804 21.919 31.8697 20.1019C33.6598 18.2848 33.6598 15.3375 31.8697 13.5204C30.0807 11.7033 27.1781 11.7033 25.3882 13.5204ZM13.4155 1.36287C11.6264 3.17996 11.6264 6.12689 13.4155 7.9444C15.2054 9.76149 18.1075 9.76149 19.8974 7.9444C21.6819 6.13158 21.6869 3.19443 19.9108 1.3765C19.9062 1.37182 19.9021 1.36713 19.897 1.36245C18.1075 -0.454222 15.2049 -0.454218 13.4155 1.36287ZM7.92465 1.36287C7.34715 0.776894 6.65482 0.37944 5.9206 0.171772C5.91013 0.168793 5.8988 0.165803 5.88792 0.162824C5.51115 0.0598417 5.11511 0.0040949 4.70693 0.00324302H4.69646C2.17274 0.00324302 0.125941 2.08163 0.120074 4.64684C0.120074 4.65024 0.120074 4.65364 0.120074 4.65747C0.120074 6.79798 1.5416 8.60145 3.47693 9.14404C3.865 9.25297 4.27402 9.31128 4.69646 9.31128C5.5233 9.31128 6.28185 9.38447 6.97165 9.53001C9.65589 10.0964 11.2966 11.7607 11.8573 14.4868C11.9839 15.1021 12.0551 15.7715 12.0715 16.4941C12.0648 16.595 12.0618 16.6971 12.0618 16.7996C12.0618 17.6473 11.9885 18.4244 11.8431 19.1305C11.2819 21.8488 9.64499 23.511 6.9683 24.0809C6.27305 24.229 5.5078 24.303 4.67257 24.303C3.48321 24.303 2.39444 24.7707 1.57722 25.534C1.53406 25.5825 1.4888 25.6307 1.4427 25.6774C-0.270092 27.4167 -0.343432 30.1912 1.22268 32.0193C1.29308 32.1015 1.36643 32.1816 1.4427 32.259C2.19034 33.0131 3.19237 33.5072 4.30671 33.5965L4.85738 33.6067C7.30232 33.5083 9.25607 31.4636 9.25607 28.9567C9.25607 28.8652 9.25691 28.7738 9.25858 28.6835C9.27242 27.9469 9.34408 27.2659 9.47189 26.6405C10.031 23.9084 11.6738 22.2407 14.3643 21.6725C14.969 21.5449 15.6274 21.4731 16.3381 21.4572C16.3239 21.4561 16.3092 21.4551 16.2946 21.4534L16.3616 21.4548L16.3809 21.4565L16.4044 21.4561C16.4802 21.4548 16.5565 21.4538 16.6336 21.4538L16.4069 21.4561L16.6554 21.4606H16.6571L16.9525 21.4551L17.0167 21.4538C16.9597 21.4585 16.9022 21.4619 16.8452 21.464L16.7803 21.4629C16.7417 21.464 16.7032 21.4646 16.665 21.465C17.494 21.465 18.2542 21.5381 18.9452 21.685C21.6282 22.2526 23.2672 23.9182 23.8267 26.6456C23.9713 27.3494 24.0438 28.1239 24.0438 28.9682C24.0438 30.2154 24.5262 31.3484 25.3119 32.1836C25.338 32.2084 25.3634 32.2335 25.3887 32.259C26.2344 33.1173 27.3282 33.5705 28.4358 33.6183C28.4371 33.6177 28.4387 33.6183 28.44 33.6183L28.9856 33.6081C30.0978 33.5181 31.0986 33.0242 31.8446 32.2705C32.7075 31.393 33.1966 30.2116 33.1966 28.9682C33.1966 26.4429 31.1859 24.3667 28.7137 24.3153C28.6822 24.3143 28.6512 24.3143 28.6197 24.3143C27.7912 24.3143 27.0315 24.2412 26.3408 24.0949C23.6574 23.5271 22.0184 21.8611 21.4585 19.1339C21.321 18.464 21.249 17.7303 21.2422 16.9333C21.2431 16.8937 21.2435 16.8541 21.2435 16.8141C21.2435 15.9686 21.316 15.1928 21.4619 14.4885C22.0221 11.7658 23.6608 10.1015 26.3421 9.53213C27.0365 9.38489 27.8001 9.31084 28.6327 9.31084C29.846 9.31084 30.9491 8.8321 31.7689 8.05037C31.802 8.01463 31.8355 7.97931 31.8697 7.9444C33.6598 6.12689 33.6598 3.17955 31.8697 1.36287C31.8663 1.35904 31.8626 1.35564 31.8596 1.35224C31.8509 1.34288 31.8422 1.33352 31.8325 1.325C31.0065 0.5071 29.8774 0.00324302 28.6327 0.00324302H28.6223C26.096 0.00920057 24.0498 2.09098 24.0498 4.65704C24.0498 4.70938 24.0492 4.76215 24.0488 4.81408C24.0405 5.59708 23.9685 6.31882 23.8331 6.97842C23.2731 9.70575 21.6321 11.3718 18.9461 11.9403C18.3393 12.0684 17.6792 12.1408 16.9659 12.1569C16.9165 12.1582 16.867 12.159 16.8176 12.1595C16.8138 12.1595 16.8104 12.1595 16.8067 12.159C16.7631 12.1582 16.7195 12.1569 16.6755 12.1569C16.6722 12.1569 16.6688 12.1569 16.665 12.1569C16.6353 12.1569 16.6051 12.1573 16.5754 12.1582C16.5536 12.1586 16.5309 12.159 16.5087 12.1599C16.5079 12.1599 16.507 12.1599 16.5062 12.1599C16.4471 12.1595 16.3884 12.1582 16.3298 12.1569C15.6236 12.1403 14.969 12.0675 14.3672 11.9399C11.6855 11.3705 10.0477 9.70405 9.48908 6.97544C9.34534 6.27243 9.27283 5.49963 9.27283 4.65704C9.27283 3.41103 8.79173 2.27951 8.00678 1.44416C7.97914 1.41777 7.95189 1.39053 7.92465 1.36287Z" fill="white"/>
<text x="42" y="24" font-family="Arial, sans-serif" font-size="20" font-weight="700" fill="white" letter-spacing="0.5">DEVTECH</text>
</g>
<defs>
<clipPath id="clip0_7471_142">
<rect width="180" height="34" fill="white"/>
</clipPath>
</defs>
</svg>
